<?xml version="1.0" ?><!DOCTYPE svg  PUBLIC '-//W3C//DTD SVG 1.1//EN'  'http://www.w3.org/Graphics/SVG/1.1/DTD/svg11.dtd'><svg enable-background="new 0 0 512 512" height="512px" id="Layer_1" version="1.1" viewBox="0 0 512 512" width="512px" xml:space="preserve" xmlns="http://www.w3.org/2000/svg" xmlns:xlink="http://www.w3.org/1999/xlink"><g><path clip-rule="evenodd" d="M25.701,0h460.897C500.509,0,512,11.492,512,25.707v460.892   c0,13.91-11.491,25.401-25.401,25.401H25.701C11.492,512,0,500.509,0,486.599V25.707C0,11.492,11.492,0,25.701,0L25.701,0z    M255.545,198.691c0-42.035-29.339-62.6-66.532-62.6h-68.351h-2.119H66.832v234.98h51.712h2.119h68.351   c0,0,74.386,2.118,74.386-69.25c0,0,3.327-58.373-43.848-58.373C219.551,243.449,255.545,240.731,255.545,198.691L255.545,198.691z    M312.404,179.036h97.08v-29.034h-97.08V179.036z M362.897,195.968c-90.114,0-90.114,90.125-90.114,90.125   s-6.057,89.814,90.114,89.814c0,0,80.441,4.537,80.441-62.595H401.92c0,0,1.509,25.401-37.514,25.401c0,0-41.42,2.719-41.42-40.83   h121.572C444.559,297.885,458.158,195.968,362.897,195.968L362.897,195.968z M322.677,266.438c0,0,4.836-35.989,41.13-35.989   s35.984,35.989,35.984,35.989H322.677z M120.663,177.827h59.577h8.773c0,0,16.628,0,16.628,24.492   c0,24.497-9.673,28.13-20.865,28.13h-64.114V177.827z M189.013,266.438c0,0,24.792-0.31,24.792,32.356   c0,26.921-18.137,30.238-27.82,30.548c-2.118,0-3.627,0-4.836,0h-60.486v-62.904H189.013z" fill="#010101" fill-rule="evenodd"/></g></svg>